{"glyphs":{"\u0000":{"ha":0,"x_min":0,"x_max":0,"o":""},"\r":{"ha":256,"x_min":0,"x_max":0,"o":""}," ":{"ha":208,"x_min":0,"x_max":0,"o":""},"d":{"ha":692,"x_min":0,"x_max":0,"o":"m 93 0 b 22 368 -22 -3 -103 160 b 338 586 99 496 221 607 b 410 528 372 579 403 560 b 519 779 450 614 471 667 b 796 1031 629 1042 726 1056 b 522 453 994 957 728 503 b 525 179 489 379 446 179 b 710 307 588 179 661 221 l 739 265 b 419 0 654 110 540 0 b 318 168 350 0 310 79 b 93 0 283 79 168 1 m 547 561 b 767 961 682 601 846 929 b 547 561 721 979 610 714 m 140 181 b 364 392 222 163 333 294 b 289 372 342 374 317 365 b 293 503 339 403 354 510 b 140 181 169 486 33 200 "},"e":{"ha":415,"x_min":0,"x_max":0,"o":"m 93 0 b 17 365 -62 0 -67 200 b 353 574 88 507 225 632 b 361 338 444 532 425 407 b 128 329 299 267 168 258 b 206 176 79 233 131 179 b 415 296 274 174 360 211 b 450 265 426 286 439 276 b 93 0 376 131 232 0 m 214 347 b 289 399 242 353 267 374 b 314 521 319 439 347 506 b 153 363 275 536 175 424 b 214 347 174 347 194 343 "},"f":{"ha":493,"x_min":0,"x_max":0,"o":"m 596 686 b 290 418 538 579 419 458 l 260 353 l 332 375 b 485 293 299 274 432 204 l 517 257 b 314 238 471 149 361 128 b 71 -208 396 46 289 -267 b 135 443 -136 -153 -10 139 b 543 958 271 732 397 994 b 596 686 660 929 661 807 m 546 872 b 322 499 485 892 385 639 b 546 872 433 519 639 843 m 149 -103 b 242 288 272 -135 289 146 b 149 -103 174 158 64 -81 "},"g":{"ha":572,"x_min":0,"x_max":0,"o":"m 6 -347 b -125 -225 -86 -347 -125 -292 b 188 -7 -125 -93 60 -31 l 264 138 b 64 4 196 38 118 -8 b -7 175 18 17 -12 72 b 351 589 6 379 178 589 b 411 463 424 589 431 514 b 299 403 394 417 351 381 b 319 524 350 433 360 519 b 151 361 261 529 192 446 b 163 181 103 257 117 192 b 361 338 229 164 292 214 b 471 589 400 406 481 564 l 607 589 b 344 43 610 593 361 72 b 519 243 424 54 447 126 b 561 310 532 264 546 286 l 603 288 b 276 -78 504 101 401 -68 b 6 -347 167 -276 103 -347 m 17 -251 b 163 -93 57 -251 129 -167 b -19 -192 53 -111 -6 -140 b 17 -251 -28 -224 -14 -251 "},"h":{"ha":722,"x_min":0,"x_max":0,"o":"m -36 0 b 328 757 49 181 235 550 b 615 1032 413 940 475 1064 b 621 740 732 1006 706 865 b 365 517 558 646 421 551 l 329 454 b 574 586 419 565 514 604 b 583 335 640 567 663 476 b 582 182 532 242 544 188 b 724 314 628 174 675 238 l 751 271 b 576 42 699 188 640 90 b 397 171 463 -50 344 24 b 500 481 449 321 543 444 b 265 292 456 515 321 378 b 149 0 201 192 125 33 l -36 0 m 394 629 b 592 972 503 658 683 940 b 479 826 561 979 519 913 b 394 629 449 764 419 692 "},"i":{"ha":364,"x_min":0,"x_max":0,"o":"m 249 628 b 272 750 168 628 194 750 b 249 628 353 750 328 628 m 63 -8 b 39 319 -31 7 -56 124 l 146 542 b 147 589 151 561 154 574 l 306 588 l 172 315 b 374 294 72 122 271 125 l 401 251 b 63 -8 292 56 153 -24 "},"j":{"ha":328,"x_min":0,"x_max":0,"o":"m 301 628 b 253 689 267 628 246 656 b 325 750 260 722 292 750 b 374 689 360 750 381 722 b 301 628 368 656 335 628 m -226 -354 b -367 -222 -294 -354 -367 -293 b -67 0 -367 -97 -208 -28 b 169 518 -1 144 93 329 b 181 588 181 542 188 557 l 358 588 b 304 525 338 576 324 560 b 76 42 235 397 121 135 b 317 283 143 42 240 153 l 360 265 b 49 -74 276 115 218 -43 b -226 -354 -7 -211 -79 -354 m -139 -193 b -86 -93 -122 -168 -104 -135 b -262 -186 -196 -118 -261 -149 b -139 -193 -265 -256 -185 -258 "},"k":{"ha":678,"x_min":0,"x_max":0,"o":"m 3 3 b 321 750 -33 -33 281 663 b 608 1025 406 933 468 1057 b 614 733 725 999 699 858 b 358 510 551 639 414 544 l 326 456 b 606 531 435 528 557 604 b 557 340 635 488 621 407 b 347 253 513 296 439 260 b 653 313 400 140 565 146 l 686 282 b 492 19 646 197 544 47 b 226 215 351 -56 256 153 b 158 1 171 114 169 85 m 378 606 b 585 965 486 635 676 933 b 472 819 554 972 513 906 b 378 606 442 757 403 668 m 275 294 b 513 442 361 313 483 363 b 465 483 522 468 499 494 b 275 294 400 458 322 367 "},"l":{"ha":382,"x_min":0,"x_max":0,"o":"m 115 4 b 35 183 46 25 25 93 b 56 303 39 219 46 260 b 544 1029 124 592 353 1101 b 511 642 656 988 613 799 b 253 422 442 536 347 444 b 240 176 219 349 161 186 b 425 304 294 171 376 218 l 454 263 b 115 4 369 107 249 -36 m 271 500 b 442 675 322 508 389 586 b 518 958 515 794 564 935 b 369 746 490 974 431 875 b 271 500 335 668 299 581 "},"m":{"ha":861,"x_min":0,"x_max":0,"o":"m -85 -1 b 146 482 -24 138 103 351 b 157 589 163 533 167 574 l 297 589 b 229 401 288 569 265 483 b 482 400 364 656 594 642 b 775 375 610 660 924 649 b 863 278 656 165 718 100 l 904 256 b 646 0 831 121 753 0 b 568 188 572 -1 543 88 b 633 468 592 290 710 464 b 400 0 507 468 400 142 l 243 0 b 381 474 319 171 458 474 b 79 -1 289 474 92 100 l -85 -1 "},"n":{"ha":599,"x_min":0,"x_max":0,"o":"m 39 254 b 158 590 111 403 175 551 l 326 590 b 219 390 304 550 236 419 b 517 586 350 572 460 604 b 519 400 568 571 574 501 b 594 281 383 150 475 115 l 636 258 b 333 -1 564 93 422 -26 b 371 375 217 32 272 207 b 414 515 422 463 439 515 b 181 269 378 517 275 432 b 65 -1 132 190 69 61 l -83 -1 "},"p":{"ha":694,"x_min":0,"x_max":0,"o":"m -268 -347 b 144 500 -136 -87 57 319 b 175 590 164 542 185 583 l 349 590 l 294 493 b 528 589 368 558 463 600 b 542 181 697 561 640 308 b 706 308 618 172 658 222 l 726 251 b 508 106 651 136 590 106 b 115 157 376 -49 88 -24 b -100 -347 39 29 -54 -217 l -268 -347 m 431 218 b 503 497 536 308 571 472 b 164 235 390 519 265 404 b 431 218 235 314 383 263 m 196 165 b 386 167 188 118 325 94 b 196 165 325 219 207 239 "},"o":{"ha":485,"x_min":0,"x_max":0,"o":"m -61 203 b 358 589 -37 408 163 617 b 400 246 494 569 488 375 b 507 307 414 224 475 249 l 542 276 b 367 196 507 199 421 167 b -61 203 188 -72 -97 -67 m 243 242 b 321 538 131 324 197 476 b 150 451 261 544 200 507 b 49 264 99 396 60 324 b 243 242 21 128 196 168 m 292 294 b 367 519 349 361 394 468 b 292 294 290 500 210 346 "},"q":{"ha":607,"x_min":0,"x_max":0,"o":"m 269 106 b 63 4 217 35 138 -17 b 89 417 -100 49 -36 258 b 476 535 210 568 388 671 l 504 594 l 654 594 b 532 407 622 563 581 490 b 426 193 483 324 471 293 b 585 267 461 158 528 181 b 610 306 597 285 606 299 l 644 272 b 339 18 579 135 411 -49 b 221 -374 321 -22 215 -283 l 11 -374 m 182 181 b 376 543 301 171 496 539 b 164 382 303 546 217 467 b 182 181 108 288 93 188 "},"s":{"ha":399,"x_min":0,"x_max":0,"o":"m 185 15 b -67 76 101 -17 15 -3 l 47 232 b 143 208 38 181 121 156 b 100 379 172 279 108 339 b 15 239 74 333 36 265 l -19 269 l 111 496 b 346 546 167 592 283 619 b 285 367 396 485 367 381 b 251 467 285 407 257 439 b 268 542 324 404 340 531 b 206 456 239 547 206 524 b 288 178 206 363 313 265 b 419 308 344 199 376 239 l 461 292 b 185 15 397 161 288 53 "},"t":{"ha":397,"x_min":0,"x_max":0,"o":"m 99 3 b 75 331 6 18 -24 136 l 178 533 l 67 533 l 101 590 l 204 590 l 353 900 b 374 978 361 917 383 958 l 528 978 l 339 590 l 456 590 l 421 533 l 315 533 l 208 326 b 410 306 108 133 307 136 l 438 263 b 99 3 328 67 189 -12 "},"u":{"ha":586,"x_min":0,"x_max":0,"o":"m 92 1 b 3 242 10 0 -72 85 l 115 458 b 160 588 150 528 168 571 l 315 589 b 156 303 281 563 179 365 b 165 181 129 228 136 181 b 283 279 197 181 240 222 b 439 589 350 368 453 528 l 619 589 b 450 313 583 574 500 431 b 456 181 414 228 424 185 b 608 308 492 175 554 218 l 636 267 b 363 1 557 100 440 1 b 307 219 290 1 251 64 b 92 1 233 71 167 1 "},"v":{"ha":606,"x_min":0,"x_max":0,"o":"m 144 0 b 101 358 32 0 -18 172 b 206 589 165 463 236 565 l 397 589 b 269 410 357 569 336 522 b 243 178 201 292 144 193 b 371 282 286 171 339 217 b 407 485 364 360 369 431 b 583 585 443 536 504 583 b 486 356 567 507 524 422 b 600 290 442 249 546 186 l 640 261 b 557 169 624 226 596 193 b 401 222 492 131 432 153 b 144 0 347 108 256 0 "},"w":{"ha":821,"x_min":0,"x_max":0,"o":"m 104 0 b 28 242 -11 0 -35 128 b 201 589 201 567 204 558 l 364 589 b 326 543 353 579 339 565 l 190 307 b 188 178 142 224 153 179 b 333 303 224 175 283 217 l 383 383 b 478 547 421 439 461 508 b 486 589 486 567 489 581 l 675 589 b 588 489 638 571 618 538 l 475 307 b 500 178 431 235 451 178 b 635 281 563 181 601 235 b 797 590 590 386 692 590 b 750 356 839 592 858 472 b 867 290 707 249 799 183 l 904 261 b 654 204 819 113 688 88 b 303 133 586 11 313 -107 b 104 0 253 65 182 1 "},"x":{"ha":607,"x_min":0,"x_max":0,"o":"m -71 1 b 183 296 0 124 89 213 l 154 483 l 14 238 l -18 275 b 69 578 28 333 100 517 l 254 579 l 285 381 b 496 578 368 447 442 510 l 632 578 b 382 368 553 499 465 433 b 299 299 353 346 325 322 b 619 325 335 122 503 133 l 650 283 l 638 260 b 331 1 553 117 453 -17 b 197 199 243 19 214 94 b 89 1 149 142 111 79 l -71 1 "},"y":{"ha":574,"x_min":0,"x_max":0,"o":"m -24 -356 b -147 -224 -92 -356 -147 -294 b 192 0 -147 -86 39 -24 b 271 154 218 38 235 72 b 88 0 183 24 147 0 b 47 310 -24 0 -31 164 b 183 590 99 408 175 542 l 342 589 b 174 289 324 582 208 374 b 183 179 149 232 143 179 b 307 297 215 179 264 222 b 451 588 372 410 460 560 l 622 589 b 339 38 592 565 458 278 b 571 282 431 51 481 138 l 614 264 b 282 -75 531 114 421 -75 b -24 -356 207 -236 89 -356 m 7 -237 b 153 -92 47 -237 119 -165 b -29 -178 43 -110 -15 -126 b 7 -237 -37 -210 -24 -240 "},"z":{"ha":563,"x_min":0,"x_max":0,"o":"m -140 -97 b 282 58 -46 -14 122 40 b 142 60 351 147 183 190 l 14 43 b 282 532 29 138 208 458 l 171 531 l 15 254 l -26 278 b 72 624 36 369 85 517 b 231 638 122 618 179 617 l 204 590 l 496 590 b 204 214 372 486 265 392 b 386 82 292 292 479 219 b 596 346 454 117 535 240 l 625 306 l 613 283 b 358 0 544 163 449 38 b 93 -331 294 -114 192 -262 b -133 -390 7 -390 -72 -404 b -140 -97 -256 -360 -296 -228 m 232 -28 b -76 -269 44 -28 -207 -199 b 232 -28 13 -319 156 -149 "},"A":{"ha":831,"x_min":0,"x_max":0,"o":"m 4 -56 b -112 250 -186 -93 -253 129 b 246 300 -49 150 113 167 b 801 985 440 494 597 833 b 975 1058 856 1024 913 1050 b 767 1064 894 1054 826 1058 b 540 1076 676 1072 606 1085 b 374 931 456 1065 397 1001 b 488 724 340 831 374 719 b 117 900 331 533 38 669 b 356 1117 150 994 240 1086 b 833 1103 511 1158 665 1132 b 1179 1065 938 1083 1063 1074 b 717 143 1108 1042 854 447 b 697 0 689 81 676 31 l 474 0 b 749 517 568 136 665 333 b 564 521 697 519 638 521 b 408 301 535 476 472 389 b 229 78 340 208 269 117 b 4 -56 153 4 72 -43 m 982 983 b 611 600 861 983 701 789 b 783 594 665 597 732 594 "},"B":{"ha":917,"x_min":0,"x_max":0,"o":"m 544 -31 b 372 208 421 -22 339 92 b 503 343 388 263 431 311 b 561 197 431 224 489 188 b 518 511 760 224 788 507 b 349 207 401 311 376 256 b 138 -1 285 94 225 -1 b -49 175 4 -1 -28 82 b 169 229 36 156 107 179 b 650 910 349 372 460 736 b 811 919 746 997 797 975 b 526 547 732 908 564 653 b 886 779 683 518 831 631 b 710 1065 950 951 883 1053 b 396 751 388 1089 206 785 b 147 872 254 526 44 696 b 558 1111 207 975 339 1082 b 1025 765 871 1153 1060 947 b 774 536 1007 669 928 581 b 843 217 883 489 890 349 b 544 -31 786 74 672 -39 "},"C":{"ha":761,"x_min":0,"x_max":0,"o":"m 138 604 b 360 892 199 715 276 818 b 901 976 521 1038 811 1131 b 722 664 967 857 867 694 b 715 810 717 767 728 638 b 843 915 763 774 854 850 b 771 963 836 951 810 965 b 326 583 651 951 417 774 b 383 146 219 354 257 172 b 719 306 464 128 615 156 l 751 272 b 286 -62 615 33 433 -68 b 138 604 61 -53 -82 204 "},"D":{"ha":1004,"x_min":0,"x_max":0,"o":"m 83 0 b -24 193 -32 3 -58 100 b 279 343 15 297 131 396 b 701 919 356 550 621 919 l 775 857 b 392 288 706 914 442 465 b 792 263 481 139 707 178 b 910 690 899 371 936 542 b 319 888 854 988 510 1101 b 349 679 251 808 246 653 b 164 531 308 586 235 531 b 149 888 22 531 19 763 b 1032 710 426 1160 929 1082 b 900 167 1078 536 1031 328 b 593 0 808 53 696 -4 b 356 172 499 4 411 60 b 83 0 289 26 172 -1 m 58 161 b 228 254 122 133 190 167 b 58 161 190 283 78 264 "},"c":{"ha":378,"x_min":0,"x_max":0,"o":"m 114 3 b 42 344 -32 0 -31 182 b 367 579 110 497 239 625 b 307 343 461 546 411 372 l 250 436 b 324 453 275 426 303 436 b 263 524 399 518 333 574 b 207 179 149 453 79 179 b 399 300 263 179 336 211 l 417 285 l 425 276 b 433 269 428 274 429 271 b 114 3 353 133 232 6 "},"E":{"ha":593,"x_min":0,"x_max":0,"o":"m 157 -25 b 349 685 -226 -25 -106 644 b 617 1019 222 797 403 1019 b 685 768 774 1019 822 813 b 588 815 646 756 604 765 b 610 929 694 785 725 929 b 447 679 453 929 357 739 b 514 575 521 679 544 615 b 383 619 481 531 408 564 b 224 150 169 596 42 226 b 593 336 328 106 511 179 l 621 294 b 157 -25 531 110 307 -25 "},"F":{"ha":744,"x_min":0,"x_max":0,"o":"m 124 -206 b 4 122 97 -114 56 17 b 310 171 94 83 214 83 b 554 532 408 260 496 413 l 349 532 l 385 589 l 582 589 b 703 864 599 625 661 769 b 303 888 596 840 436 888 b 104 779 185 888 122 836 b 314 654 76 690 158 590 b 93 500 257 515 163 494 b -89 747 -15 510 -99 617 b 364 1004 -74 961 122 1074 b 704 938 513 960 633 911 b 769 1036 739 949 764 996 l 921 1042 b 706 589 893 1024 743 672 l 839 589 l 808 533 l 688 533 b 475 106 635 413 556 240 b 124 -206 372 -65 251 -206 "},"G":{"ha":749,"x_min":0,"x_max":0,"o":"m 124 -401 b 93 -104 43 -340 14 -190 b 581 233 236 -254 444 -93 b 182 -1 439 67 294 -4 b 54 569 -11 4 -111 228 b 319 904 115 696 208 815 b 699 1036 431 993 560 1046 b 840 844 818 1026 875 946 b 653 824 778 665 625 694 b 775 915 694 792 778 856 b 694 972 774 943 751 967 b 267 619 542 988 357 790 b 289 179 125 356 174 197 b 736 590 410 160 611 310 l 856 590 l 858 589 b 553 -51 790 506 676 163 b 124 -401 407 -303 246 -492 "},"H":{"ha":1032,"x_min":0,"x_max":0,"o":"m 169 -222 b -32 76 42 -222 -60 -147 b 363 146 71 15 236 0 b 504 376 413 203 461 281 l 375 376 l 419 435 l 532 435 b 731 835 574 524 703 783 b 446 868 625 814 535 842 b 92 801 303 906 107 917 b 265 738 82 738 149 642 b 79 510 281 594 169 503 b -114 800 -25 517 -137 619 b 378 974 -86 1014 136 1043 b 614 903 443 954 529 917 b 788 1006 710 888 776 914 l 979 1006 b 688 435 954 988 782 625 l 908 435 l 1200 1018 l 1346 1018 l 1019 374 b 901 0 957 247 879 85 l 708 0 l 878 376 l 661 376 b 169 -222 561 171 381 -197 "},"I":{"ha":614,"x_min":0,"x_max":0,"o":"m 117 -86 b -67 144 31 -69 -37 25 b 156 196 7 126 82 146 b 661 942 406 367 504 701 b 183 982 496 901 275 1121 b 306 824 113 893 183 765 b 82 681 238 717 151 674 b -49 914 -3 689 -65 775 b 233 1124 -32 1054 78 1126 b 729 1110 411 1121 664 915 l 849 1018 b 342 51 668 758 525 301 b 117 -86 274 -44 199 -101 "},"J":{"ha":778,"x_min":0,"x_max":0,"o":"m 97 -354 b -53 49 -200 -347 -236 0 b 86 -114 -57 -64 1 -118 b 481 207 200 -108 361 0 b 801 863 583 385 700 636 b 369 931 675 831 489 983 b 447 738 242 875 300 726 b 96 828 342 496 61 565 b 375 1036 114 967 221 1036 b 871 1040 611 1036 842 819 l 1031 1042 b 843 676 972 1001 890 786 b 506 -60 731 417 586 89 b 97 -354 397 -261 247 -358 "},"K":{"ha":974,"x_min":0,"x_max":0,"o":"m 726 -21 b 654 146 644 -21 601 49 b 757 364 703 238 746 311 b 731 426 763 400 751 419 b 378 47 585 471 469 207 b 76 179 215 -240 -56 -110 b 303 194 118 107 218 90 b 524 567 372 278 446 413 b 692 899 640 801 619 763 b 289 913 569 846 414 908 b 183 865 244 913 206 897 b 303 710 118 772 188 665 b -46 799 214 497 -89 483 b 232 1004 -29 936 79 1004 b 732 1044 464 1004 706 888 l 900 1042 b 597 481 868 1014 674 632 b 1164 926 747 614 993 1010 b 1179 792 1192 913 1217 857 b 674 489 1093 882 946 731 b 844 219 865 549 947 410 b 922 204 786 110 854 96 b 971 288 946 243 965 281 l 1011 264 b 956 165 1004 246 983 208 b 726 -21 888 51 808 -21 "},"L":{"ha":1063,"x_min":0,"x_max":0,"o":"m 742 -17 b 382 164 611 -17 468 61 b 174 0 322 83 267 4 b 139 313 -6 -6 -39 261 b 321 297 192 329 257 325 b 582 647 350 326 493 507 b 306 925 506 772 404 917 b 288 679 183 932 126 739 b 32 944 32 592 -37 801 b 294 1050 74 1029 164 1089 b 642 738 432 1008 572 871 b 1032 1111 779 942 914 1107 b 1106 1094 1068 1113 1094 1100 b 1201 914 1179 1061 1206 992 b 1110 671 1197 836 1163 746 b 672 561 992 503 814 428 b 446 240 606 458 503 311 b 717 182 496 224 610 182 b 917 269 796 182 879 210 b 742 -17 960 65 839 -17 m 721 665 b 1119 938 901 538 1114 721 b 1082 1042 1122 989 1111 1031 b 721 665 1001 1072 794 813 m 126 128 b 283 239 178 119 213 164 b 126 246 229 269 165 269 b 126 128 74 213 81 146 "},"M":{"ha":1361,"x_min":0,"x_max":0,"o":"m 557 -3 b 890 886 729 451 986 831 b 285 0 769 956 333 142 l 13 0 b 456 808 178 179 493 640 b 64 769 410 1008 97 979 b 269 589 43 639 138 550 b 28 456 208 454 108 422 b -71 808 -75 497 -147 640 b 347 1000 6 976 196 1039 b 557 694 514 958 557 833 b 961 982 674 919 842 1060 b 982 661 1026 936 1039 790 b 1411 985 1085 835 1296 1038 b 1218 351 1569 913 1275 472 b 1386 282 1121 133 1275 122 l 1422 250 b 1042 335 1171 -136 826 -57 b 1303 864 1160 549 1358 836 b 747 0 1181 925 767 226 l 557 -3 "},"N":{"ha":938,"x_min":0,"x_max":0,"o":"m 7 0 b 225 964 265 394 554 924 b 176 653 -17 990 -25 596 b -142 675 115 467 -122 481 b 218 1024 -162 882 33 1024 b 508 694 407 1024 533 907 b 971 1003 604 867 821 1117 b 811 467 1100 904 919 628 b 740 185 708 314 694 211 b 950 294 778 164 853 196 l 986 263 b 585 0 871 85 682 -49 b 692 482 457 64 572 281 b 849 865 799 661 907 829 b 235 0 710 954 315 264 b 7 0 126 0 90 3 "},"O":{"ha":643,"x_min":0,"x_max":0,"o":"m 183 -6 b 553 1025 -292 61 61 1072 b 183 -6 1065 976 657 -72 m 236 136 b 542 933 522 88 826 864 b 236 136 272 999 -29 181 "},"P":{"ha":858,"x_min":0,"x_max":0,"o":"m 467 486 l 481 529 b 772 682 638 533 718 599 b 776 938 825 763 828 864 b 458 1038 725 1011 621 1060 b 114 718 311 1015 151 853 b 160 597 96 656 107 608 b -68 626 92 475 -33 501 b -18 838 -83 683 -72 756 b 592 1100 104 1024 365 1140 b 907 913 743 1076 850 1004 b 910 632 964 821 967 718 b 468 486 828 511 592 453 m -76 124 b 203 408 43 136 128 258 b 574 999 318 636 411 929 b 692 1001 608 1013 647 1014 b 490 761 594 972 538 882 b 364 375 438 622 411 504 b 250 133 338 300 301 222 b -76 124 164 -8 -28 -53 "},"Q":{"ha":790,"x_min":0,"x_max":0,"o":"m 642 -315 b 464 -179 585 -300 519 -244 b 332 10 407 -114 358 -40 b 92 -87 247 -75 157 -103 b 22 115 -6 -65 -29 40 b 185 194 51 158 106 190 b 374 114 263 196 336 169 b 778 778 542 232 800 588 b 669 856 768 846 729 871 b 310 547 535 821 385 682 b 349 326 247 439 235 331 b 200 238 306 261 251 233 b 67 375 106 244 67 297 b 172 657 65 453 104 551 b 624 996 276 819 463 993 b 842 882 746 994 813 950 b 424 61 942 650 646 194 b 578 -78 468 4 518 -46 b 776 -103 638 -110 699 -121 l 642 -315 m 289 63 b 167 144 246 118 204 140 b 64 40 101 147 43 85 b 219 25 85 -8 167 -3 "},"R":{"ha":850,"x_min":0,"x_max":0,"o":"m 713 -3 b 560 121 633 -44 571 21 b 472 403 538 244 567 381 l 471 403 l 485 444 b 764 590 635 449 713 511 b 768 835 814 668 817 764 b 464 931 718 906 619 951 b 133 625 322 910 169 754 b 178 510 117 565 128 519 b -40 538 113 393 -7 418 b 7 739 -56 592 -44 661 b 592 990 125 918 375 1029 b 893 811 736 968 839 899 b 896 543 947 724 950 625 b 547 400 840 461 726 401 b 599 328 569 383 586 358 b 732 163 638 222 683 165 b 868 289 776 158 824 200 l 911 267 l 875 203 b 806 89 857 171 833 132 b 713 -3 778 46 746 14 m -49 56 b 219 329 67 68 147 185 b 574 893 329 547 418 826 b 686 896 607 907 644 908 b 494 667 593 868 539 782 b 374 297 443 533 418 421 b 264 65 347 225 314 150 b -49 56 182 -69 -1 -112 "},"S":{"ha":661,"x_min":0,"x_max":0,"o":"m 271 122 b 436 407 385 128 508 233 b 358 546 419 449 393 494 b 363 860 285 653 297 769 b 835 915 476 1018 781 1079 b 633 657 876 789 771 644 l 556 779 b 760 889 638 725 760 803 b 486 874 760 1006 569 971 b 525 518 369 739 442 610 b 628 219 608 418 642 314 b -33 161 581 -99 4 -162 b 225 390 -51 311 79 428 b 271 122 58 303 96 113 "},"T":{"ha":560,"x_min":0,"x_max":0,"o":"m 50 -37 b -100 283 28 74 -10 176 b 583 944 229 207 457 663 b 207 896 450 979 292 1008 b 250 686 139 806 154 669 b -53 711 174 571 -12 576 b 214 1050 -100 865 38 1015 b 919 1035 388 1086 688 1042 b 1218 1090 1056 1031 1169 1042 b 1118 921 1206 1026 1172 965 b 701 918 996 826 847 869 b 50 -37 589 732 363 10 "},"U":{"ha":906,"x_min":0,"x_max":0,"o":"m 281 -1 b 303 504 90 10 188 308 b 417 797 358 597 413 688 b 326 946 421 886 381 933 b 146 868 267 961 192 933 b 275 686 76 768 172 642 b 111 517 268 607 213 517 b 54 897 -17 517 -51 760 b 500 928 156 1026 406 1044 b 538 763 533 883 544 825 b 442 511 526 674 486 594 b 397 179 351 340 267 183 b 733 572 539 175 617 350 b 904 972 869 836 922 938 l 1099 972 l 775 372 b 913 272 671 181 815 107 l 956 251 b 708 0 900 157 838 0 b 569 201 590 0 551 92 b 281 -1 485 67 365 -7 "},"V":{"ha":828,"x_min":0,"x_max":0,"o":"m 360 0 b 329 494 172 44 213 286 b 414 899 413 633 475 803 b 256 940 379 947 311 967 b 276 686 88 863 92 650 b 125 535 275 610 192 535 b 43 858 1 531 -43 732 b 335 1003 100 947 207 1008 b 561 865 468 997 538 943 b 517 583 585 788 565 685 b 419 179 389 290 326 204 b 753 494 549 144 671 319 b 750 971 840 683 892 932 b 896 986 806 1015 857 1014 b 965 756 961 942 981 857 b 842 422 950 654 904 535 b 360 0 713 190 518 -37 "},"W":{"ha":1215,"x_min":0,"x_max":0,"o":"m 317 -1 b 236 400 117 -6 133 214 b 407 799 322 557 403 672 b 317 949 411 888 371 936 b 133 869 254 964 171 917 b 244 690 54 776 85 614 b -43 664 207 490 -8 474 b 304 1007 -69 854 103 1017 b 528 863 432 1001 506 946 b 381 400 558 749 503 636 b 368 179 322 289 288 176 b 594 394 443 182 522 274 b 764 733 657 499 715 624 b 796 958 792 800 832 914 l 981 958 b 822 607 936 864 878 739 b 796 181 728 383 638 182 b 1121 558 925 179 1043 389 b 1115 975 1199 735 1246 960 b 1275 1026 1124 1035 1232 1053 b 1232 499 1390 949 1326 683 b 733 -1 1106 253 888 1 b 567 242 582 -4 538 85 b 317 -1 500 115 414 6 "},"X":{"ha":835,"x_min":0,"x_max":0,"o":"m -118 -212 b -226 32 -201 -199 -236 -92 b 128 136 -110 -8 10 40 b 476 543 249 235 368 385 b 440 800 478 611 472 713 b 276 954 411 882 343 936 b 126 757 147 988 67 863 b 347 740 174 675 261 681 b 203 576 315 646 263 593 b -17 819 69 536 -36 667 b 311 993 11 979 163 1039 b 572 657 453 950 572 814 b 801 993 656 758 822 947 l 939 993 b 583 524 888 933 663 636 b 593 267 583 439 581 338 b 682 174 601 211 625 174 b 817 282 721 174 768 201 l 856 260 b 594 0 792 126 686 0 b 479 214 496 0 481 101 b 475 397 478 276 474 335 b 147 -65 406 246 269 60 b -118 -212 31 -183 -57 -224 "},"Y":{"ha":801,"x_min":0,"x_max":0,"o":"m 214 -347 b 138 -125 210 -293 176 -207 b 542 188 288 -175 460 17 b 256 0 500 114 335 -4 b 144 106 204 3 163 35 b 179 338 126 183 144 260 b 382 801 225 439 376 647 b 238 947 382 906 328 961 b 89 833 158 936 111 878 b 224 686 44 744 128 653 b 74 550 211 589 129 550 b 31 914 -76 550 -89 794 b 279 1004 90 974 174 1008 b 501 763 440 997 518 910 b 317 311 481 593 364 490 b 585 328 265 119 472 154 b 831 925 661 447 874 864 l 1044 925 b 968 800 1025 901 999 857 b 685 211 881 633 792 431 b 214 -347 572 -21 385 -276 "},"Z":{"ha":807,"x_min":0,"x_max":0,"o":"m 515 0 b 290 151 431 33 349 103 b 57 -1 232 76 124 -1 b -101 108 -33 -1 -87 47 b 246 304 -143 275 82 386 b 765 928 426 453 589 822 b 474 996 688 931 561 983 b 310 763 306 1019 192 863 b 435 736 342 735 389 721 l 304 567 b 171 682 242 582 197 626 b 163 864 144 738 140 804 b 374 1042 194 954 279 1022 b 707 1033 490 1068 600 1049 b 1032 1053 814 1018 921 1008 b 914 921 1035 988 978 911 b 368 247 719 790 538 438 b 735 185 425 186 672 143 b 515 0 749 42 656 -51 m 193 247 b -15 171 108 304 -61 229 b 193 247 24 122 108 165 "},"a":{"ha":615,"x_min":0,"x_max":0,"o":"m 108 0 b 40 340 -1 0 -49 179 b 343 590 103 457 225 594 b 438 494 397 586 436 550 b 468 589 453 525 476 571 l 636 589 b 482 350 604 575 535 456 b 639 296 382 149 519 119 l 671 258 b 347 1 560 89 424 -11 b 304 186 297 8 274 67 b 108 0 256 88 181 0 m 165 181 b 364 356 233 181 315 268 b 369 514 411 442 410 488 b 183 385 307 544 233 464 b 165 181 121 289 94 181 "},"b":{"ha":644,"x_min":0,"x_max":0,"o":"m -106 0 b 269 758 -24 136 181 568 b 557 1033 354 942 417 1065 b 563 742 674 1007 647 867 b 307 532 500 647 363 567 l 285 490 b 529 226 572 713 747 519 b 675 313 583 217 632 236 l 696 258 b 486 164 644 181 593 104 b 239 3 424 71 315 4 b 110 121 143 1 107 56 b 79 0 92 69 79 24 l -106 0 m 326 614 b 533 974 435 643 625 942 b 421 828 503 981 461 914 b 326 614 390 765 351 676 m 164 246 b 404 279 219 310 308 343 b 249 401 585 476 447 610 l 164 246 m 247 133 b 371 225 282 139 319 163 b 182 179 315 276 193 260 b 247 133 178 147 207 126 "},"r":{"ha":392,"x_min":0,"x_max":0,"o":"m 76 7 b 85 293 4 33 -15 129 l 221 513 l 132 510 l -12 250 l -56 272 b 31 607 3 350 85 560 b 175 586 90 694 201 647 l 403 588 b 231 181 275 415 151 200 b 397 307 274 172 340 206 l 425 264 b 76 7 342 106 167 -24 "}}}
